<?xml version="1.0" encoding="UTF-8" standalone="no"?>
<svg version="1.1" id="Layer_5" x="0px" y="0px" viewBox="0 0 360 156" width="360" height="156" xmlns="http://www.w3.org/2000/svg">
<g transform="translate(-2)">
	<path d="m 303.3,1.2 c 0,0 -219.9,0 -229.7,0 -9.8,0 -17,10.3 -17,10.3 0,0 -49.3,63.9 -51.4,66.8 -3,4 -2.1,14.1 0,17 5.9,8 34.5,47.1 35.8,48.8 1.4,1.7 7.7,11.1 16.5,11.1 8.8,0 278.7,0 283.5,0 8.7,0 19.6,-20.2 19.6,-25.2 0,-5 -0.3,-58.9 -0.3,-64.5 0,-3.7 -2.6,-8.4 -5.1,-11.5 C 352.9,51.2 319.9,10 317,6.5 314.5,3.6 308.8,1.2 303.3,1.2 Z" fill="#000000"/>
</g>
</svg>
